<?xml version="1.0" encoding="UTF-8"?>
<!DOCTYPE svg PUBLIC "-//W3C//DTD SVG 1.1//EN" "http://www.w3.org/Graphics/SVG/1.1/DTD/svg11.dtd">
<svg xmlns="http://www.w3.org/2000/svg" version="1.1" width="2000px" height="412px" style="shape-rendering:geometricPrecision; text-rendering:geometricPrecision; image-rendering:optimizeQuality; fill-rule:evenodd; clip-rule:evenodd" xmlns:xlink="http://www.w3.org/1999/xlink">
<g><path style="opacity:0.915" fill="#30ad63" d="M 948.5,-0.5 C 962.5,-0.5 976.5,-0.5 990.5,-0.5C 1066.51,9.83226 1121.85,49.1656 1156.5,117.5C 1154.45,122.193 1151.45,125.859 1147.5,128.5C 1127.5,81.6668 1094.17,47.8335 1047.5,27C 980.809,0.64477 917.476,6.9781 857.5,46C 825.433,68.9506 802.099,98.7839 787.5,135.5C 784.441,131.772 781.774,127.772 779.5,123.5C 813.734,52.2013 870.067,10.868 948.5,-0.5 Z"/></g>
<g><path style="opacity:0.771" fill="#30ad63" d="M 950.5,16.5 C 1031.23,12.2785 1092.73,44.2785 1135,112.5C 1139.22,119.928 1142.56,127.595 1145,135.5C 1144.17,136.5 1143.33,137.5 1142.5,138.5C 1113.99,72.0698 1063.99,33.2365 992.5,22C 911.955,15.5219 850.455,46.3553 808,114.5C 802.604,124.623 797.77,134.957 793.5,145.5C 791.661,143.473 791.161,141.14 792,138.5C 815.452,81.7139 856.285,43.5472 914.5,24C 926.466,20.6412 938.466,18.1412 950.5,16.5 Z"/></g>
<g><path style="opacity:0.976" fill="#be392a" d="M 930.5,61.5 C 950.836,61.3334 971.169,61.5 991.5,62C 968.704,115.761 946.038,169.594 923.5,223.5C 945.49,224.5 967.49,224.833 989.5,224.5C 989.5,188.167 989.5,151.833 989.5,115.5C 1008.17,115.5 1026.83,115.5 1045.5,115.5C 1045.33,152.168 1045.5,188.835 1046,225.5C 1054.75,224.516 1063.58,224.183 1072.5,224.5C 1072.5,243.167 1072.5,261.833 1072.5,280.5C 1063.5,280.5 1054.5,280.5 1045.5,280.5C 1045.5,298.833 1045.5,317.167 1045.5,335.5C 1026.83,335.5 1008.17,335.5 989.5,335.5C 989.5,317.167 989.5,298.833 989.5,280.5C 939.496,280.833 889.496,280.5 839.5,279.5C 870.23,206.972 900.563,134.305 930.5,61.5 Z"/></g>
<g><path style="opacity:0.991" fill="#30ad63" d="M 64.5,104.5 C 294.5,104.333 524.5,104.5 754.5,105C 776.376,138.586 798.376,172.086 820.5,205.5C 798.697,239.135 776.697,272.635 754.5,306C 524.499,306.833 294.499,306.667 64.5,305.5C 86.9969,272.51 108.997,239.176 130.5,205.5C 108.728,171.606 86.728,137.939 64.5,104.5 Z"/></g>
<g><path style="opacity:0.992" fill="#30ac62" d="M 1178.5,104.5 C 1430.5,104.167 1682.5,104.5 1934.5,105.5C 1912.11,138.562 1890.11,171.896 1868.5,205.5C 1890.11,239.104 1912.11,272.438 1934.5,305.5C 1682.5,306.667 1430.5,306.833 1178.5,306C 1156.62,272.414 1134.62,238.914 1112.5,205.5C 1134.76,171.976 1156.76,138.309 1178.5,104.5 Z"/></g>
<g><path style="opacity:1" fill="#fdfefd" d="M 1466.5,128.5 C 1501.5,128.5 1536.5,128.5 1571.5,128.5C 1571.5,138.5 1571.5,148.5 1571.5,158.5C 1559.17,158.5 1546.83,158.5 1534.5,158.5C 1534.5,198.167 1534.5,237.833 1534.5,277.5C 1524.5,277.5 1514.5,277.5 1504.5,277.5C 1504.5,237.833 1504.5,198.167 1504.5,158.5C 1491.83,158.5 1479.17,158.5 1466.5,158.5C 1466.5,148.5 1466.5,138.5 1466.5,128.5 Z"/></g>
<g><path style="opacity:1" fill="#fdfefd" d="M 1586.5,128.5 C 1596.5,128.5 1606.5,128.5 1616.5,128.5C 1616.5,178.167 1616.5,227.833 1616.5,277.5C 1606.5,277.5 1596.5,277.5 1586.5,277.5C 1586.5,227.833 1586.5,178.167 1586.5,128.5 Z"/></g>
<g><path style="opacity:1" fill="#fdfefd" d="M 1630.5,128.5 C 1641.17,128.5 1651.83,128.5 1662.5,128.5C 1673.51,154.672 1685.01,180.672 1697,206.5C 1708.92,180.945 1720.75,155.278 1732.5,129.5C 1743.17,128.167 1753.83,128.167 1764.5,129.5C 1741.97,178.45 1719.63,227.45 1697.5,276.5C 1674.62,227.413 1652.29,178.08 1630.5,128.5 Z"/></g>
<g><path style="opacity:1" fill="#fdfefe" d="M 1844.5,188.5 C 1844.5,198.167 1844.5,207.833 1844.5,217.5C 1829.66,217.171 1814.99,217.504 1800.5,218.5C 1800.5,228.5 1800.5,238.5 1800.5,248.5C 1820.5,248.5 1840.5,248.5 1860.5,248.5C 1860.5,258.167 1860.5,267.833 1860.5,277.5C 1830.5,277.5 1800.5,277.5 1770.5,277.5C 1770.5,227.833 1770.5,178.167 1770.5,128.5C 1800.5,128.5 1830.5,128.5 1860.5,128.5C 1860.5,138.5 1860.5,148.5 1860.5,158.5C 1840.5,158.5 1820.5,158.5 1800.5,158.5C 1800.5,168.5 1800.5,178.5 1800.5,188.5C 1815.17,188.5 1829.83,188.5 1844.5,188.5 Z"/></g>
<g><path style="opacity:1" fill="#fdfefd" d="M 1254.5,129.5 C 1257.14,132.773 1259.31,136.44 1261,140.5C 1281.37,186.075 1301.87,231.575 1322.5,277C 1311.83,277.667 1301.17,277.667 1290.5,277C 1287.36,269.914 1284.03,262.914 1280.5,256C 1263.49,255.167 1246.49,255.334 1229.5,256.5C 1226.5,263.167 1223.5,269.833 1220.5,276.5C 1209.83,277.833 1199.17,277.833 1188.5,276.5C 1210.77,227.627 1232.77,178.627 1254.5,129.5 Z"/></g>
<g><path style="opacity:1" fill="#fdfefd" d="M 1390.5,128.5 C 1410.7,126.838 1429.36,131.338 1446.5,142C 1449.98,144.312 1452.98,147.146 1455.5,150.5C 1448.85,157.652 1442.01,164.652 1435,171.5C 1421.27,158.777 1405.44,155.277 1387.5,161C 1363.1,172.97 1354.27,192.137 1361,218.5C 1371.45,241.48 1389.28,250.98 1414.5,247C 1422.07,244.418 1428.9,240.584 1435,235.5C 1441.96,241.455 1448.62,247.789 1455,254.5C 1455.67,255.5 1455.67,256.5 1455,257.5C 1434.67,275.269 1411.17,281.436 1384.5,276C 1342.5,260.849 1324.33,231.016 1330,186.5C 1339.64,156.028 1359.8,136.695 1390.5,128.5 Z"/></g>
<g><path style="opacity:1" fill="#fdfefe" d="M 240.5,160.5 C 220.833,160.5 201.167,160.5 181.5,160.5C 180.506,170.319 180.173,180.319 180.5,190.5C 195.5,190.5 210.5,190.5 225.5,190.5C 225.5,200.167 225.5,209.833 225.5,219.5C 210.657,219.171 195.99,219.504 181.5,220.5C 181.5,230.167 181.5,239.833 181.5,249.5C 201.167,249.5 220.833,249.5 240.5,249.5C 240.5,259.5 240.5,269.5 240.5,279.5C 210.833,279.5 181.167,279.5 151.5,279.5C 151.5,229.833 151.5,180.167 151.5,130.5C 181.167,130.5 210.833,130.5 240.5,130.5C 240.5,140.5 240.5,150.5 240.5,160.5 Z"/></g>
<g><path style="opacity:1" fill="#fdfefd" d="M 252.5,130.5 C 263.082,130.18 273.582,130.513 284,131.5C 295.667,157.167 307.333,182.833 319,208.5C 330.957,182.922 342.624,157.255 354,131.5C 364.757,130.347 375.59,130.18 386.5,131C 364.129,180.242 341.629,229.408 319,278.5C 296.564,229.294 274.397,179.961 252.5,130.5 Z"/></g>
<g><path style="opacity:1" fill="#fefefe" d="M 481.5,130.5 C 481.5,140.167 481.5,149.833 481.5,159.5C 461.66,159.17 441.993,159.503 422.5,160.5C 422.5,170.5 422.5,180.5 422.5,190.5C 437.5,190.5 452.5,190.5 467.5,190.5C 467.5,200.167 467.5,209.833 467.5,219.5C 452.324,219.171 437.324,219.504 422.5,220.5C 422.5,230.167 422.5,239.833 422.5,249.5C 441.993,250.497 461.66,250.83 481.5,250.5C 481.5,260.167 481.5,269.833 481.5,279.5C 451.833,279.5 422.167,279.5 392.5,279.5C 392.5,229.833 392.5,180.167 392.5,130.5C 422.167,130.5 451.833,130.5 481.5,130.5 Z"/></g>
<g><path style="opacity:1" fill="#fdfefd" d="M 495.5,130.5 C 525.463,157.293 555.296,184.293 585,211.5C 585.5,184.502 585.667,157.502 585.5,130.5C 595.5,130.5 605.5,130.5 615.5,130.5C 615.667,180.168 615.5,229.834 615,279.5C 585.333,252.5 555.667,225.5 526,198.5C 525.5,225.498 525.333,252.498 525.5,279.5C 515.5,279.5 505.5,279.5 495.5,279.5C 495.5,229.833 495.5,180.167 495.5,130.5 Z"/></g>
<g><path style="opacity:1" fill="#fdfefd" d="M 632.5,130.5 C 667.167,130.5 701.833,130.5 736.5,130.5C 736.5,140.5 736.5,150.5 736.5,160.5C 724.167,160.5 711.833,160.5 699.5,160.5C 699.5,200.167 699.5,239.833 699.5,279.5C 689.5,279.5 679.5,279.5 669.5,279.5C 669.5,239.5 669.5,199.5 669.5,159.5C 657.167,159.5 644.833,159.5 632.5,159.5C 632.5,149.833 632.5,140.167 632.5,130.5 Z"/></g>
<g><path style="opacity:1" fill="#bfe5d1" d="M 481.5,130.5 C 482.494,140.319 482.827,150.319 482.5,160.5C 462.5,160.5 442.5,160.5 422.5,160.5C 441.993,159.503 461.66,159.17 481.5,159.5C 481.5,149.833 481.5,140.167 481.5,130.5 Z"/></g>
<g><path style="opacity:1" fill="#a8dcbe" d="M 632.5,130.5 C 632.5,140.167 632.5,149.833 632.5,159.5C 644.833,159.5 657.167,159.5 669.5,159.5C 669.5,199.5 669.5,239.5 669.5,279.5C 669.167,279.5 668.833,279.5 668.5,279.5C 668.5,239.833 668.5,200.167 668.5,160.5C 656.167,160.5 643.833,160.5 631.5,160.5C 631.173,150.319 631.506,140.319 632.5,130.5 Z"/></g>
<g><path style="opacity:1" fill="#0e9f48" d="M 631.5,160.5 C 643.833,160.5 656.167,160.5 668.5,160.5C 668.5,200.167 668.5,239.833 668.5,279.5C 667.501,240.337 667.168,201.004 667.5,161.5C 655.322,161.828 643.322,161.495 631.5,160.5 Z"/></g>
<g><path style="opacity:1" fill="#13a24e" d="M 736.5,160.5 C 724.678,161.495 712.678,161.828 700.5,161.5C 700.832,201.004 700.499,240.337 699.5,279.5C 699.5,239.833 699.5,200.167 699.5,160.5C 711.833,160.5 724.167,160.5 736.5,160.5 Z"/></g>
<g><path style="opacity:1" fill="#0f9f49" d="M 181.5,160.5 C 201.167,160.5 220.833,160.5 240.5,160.5C 221.341,161.497 202.007,161.83 182.5,161.5C 182.5,170.5 182.5,179.5 182.5,188.5C 197.01,188.171 211.343,188.504 225.5,189.5C 210.833,189.5 196.167,189.5 181.5,189.5C 181.5,179.833 181.5,170.167 181.5,160.5 Z"/></g>
<g><path style="opacity:1" fill="#89d0a9" d="M 181.5,160.5 C 181.5,170.167 181.5,179.833 181.5,189.5C 196.167,189.5 210.833,189.5 225.5,189.5C 225.5,189.833 225.5,190.167 225.5,190.5C 210.5,190.5 195.5,190.5 180.5,190.5C 180.173,180.319 180.506,170.319 181.5,160.5 Z"/></g>
<g><path style="opacity:1" fill="#2eab60" d="M 1266.5,224.5 C 1259.17,225.833 1251.83,225.833 1244.5,224.5C 1247.39,216.152 1251.06,208.152 1255.5,200.5C 1259.55,208.326 1263.22,216.326 1266.5,224.5 Z"/></g>
<g><path style="opacity:1" fill="#bbe4cf" d="M 1844.5,188.5 C 1845.49,198.319 1845.83,208.319 1845.5,218.5C 1830.5,218.5 1815.5,218.5 1800.5,218.5C 1814.99,217.504 1829.66,217.171 1844.5,217.5C 1844.5,207.833 1844.5,198.167 1844.5,188.5 Z"/></g>
<g><path style="opacity:1" fill="#0e9f49" d="M 181.5,220.5 C 196.17,220.333 210.837,220.5 225.5,221C 211.171,221.5 196.837,221.667 182.5,221.5C 182.5,230.5 182.5,239.5 182.5,248.5C 202.007,248.17 221.341,248.503 240.5,249.5C 220.833,249.5 201.167,249.5 181.5,249.5C 181.5,239.833 181.5,230.167 181.5,220.5 Z"/></g>
<g><path style="opacity:1" fill="#c6e9d6" d="M 1244.5,224.5 C 1251.83,225.833 1259.17,225.833 1266.5,224.5C 1267.04,224.56 1267.38,224.893 1267.5,225.5C 1259.5,226.833 1251.5,226.833 1243.5,225.5C 1243.62,224.893 1243.96,224.56 1244.5,224.5 Z"/></g>
<g><path style="opacity:1" fill="#1aa351" d="M 422.5,220.5 C 437.504,220.333 452.504,220.5 467.5,221C 453.171,221.5 438.837,221.667 424.5,221.5C 424.5,230.5 424.5,239.5 424.5,248.5C 444.007,248.17 463.341,248.503 482.5,249.5C 462.5,249.5 442.5,249.5 422.5,249.5C 422.5,239.833 422.5,230.167 422.5,220.5 Z"/></g>
<g><path style="opacity:1" fill="#b8e3ce" d="M 422.5,249.5 C 442.5,249.5 462.5,249.5 482.5,249.5C 482.827,259.681 482.494,269.681 481.5,279.5C 481.5,269.833 481.5,260.167 481.5,250.5C 461.66,250.83 441.993,250.497 422.5,249.5 Z"/></g>
<g><path style="opacity:0.759" fill="#30ad63" d="M 792.5,265.5 C 797.893,276.285 803.393,287.285 809,298.5C 841.794,352.012 889.627,382.512 952.5,390C 1019.13,394.032 1073.63,370.532 1116,319.5C 1126.88,305.089 1135.71,289.422 1142.5,272.5C 1143.5,273.833 1144.5,275.167 1145.5,276.5C 1117.05,341.098 1068.05,379.931 998.5,393C 923.458,401.545 862.624,376.379 816,317.5C 805.589,302.846 797.423,287.012 791.5,270C 791.773,268.467 792.106,266.967 792.5,265.5 Z"/></g>
<g><path style="opacity:0.916" fill="#30ad63" d="M 991.5,411.5 C 976.833,411.5 962.167,411.5 947.5,411.5C 869.523,399.854 813.523,358.52 779.5,287.5C 781.774,283.228 784.441,279.228 787.5,275.5C 811.409,333.909 853.409,372.742 913.5,392C 983.338,410.503 1045.67,396.503 1100.5,350C 1121.28,330.906 1136.94,308.406 1147.5,282.5C 1151.66,285.188 1154.66,289.022 1156.5,294C 1121.92,361.641 1066.92,400.808 991.5,411.5 Z"/></g>
</svg>
